<?xml version="1.0" encoding="UTF-8" standalone="no"?>
<!-- Created with Inkscape (http://www.inkscape.org/) -->

<svg
   xmlns:dc="http://purl.org/dc/elements/1.1/"
   xmlns:cc="http://creativecommons.org/ns#"
   xmlns:rdf="http://www.w3.org/1999/02/22-rdf-syntax-ns#"
   xmlns:svg="http://www.w3.org/2000/svg"
   xmlns="http://www.w3.org/2000/svg"
   xmlns:sodipodi="http://sodipodi.sourceforge.net/DTD/sodipodi-0.dtd"
   xmlns:inkscape="http://www.inkscape.org/namespaces/inkscape"
   width="79.999763mm"
   height="79.999756mm"
   viewBox="0 0 79.999763 79.999755"
   version="1.1"
   id="svg2244"
   inkscape:version="0.92.3 (2405546, 2018-03-11)"
   sodipodi:docname="favicon_pending.svg">
  <defs
     id="defs2238" />
  <sodipodi:namedview
     id="base"
     pagecolor="#ffffff"
     bordercolor="#666666"
     borderopacity="1.0"
     inkscape:pageopacity="0.0"
     inkscape:pageshadow="2"
     inkscape:zoom="0.24748737"
     inkscape:cx="681.7564"
     inkscape:cy="-192.49378"
     inkscape:document-units="mm"
     inkscape:current-layer="layer1"
     showgrid="false"
     inkscape:window-width="930"
     inkscape:window-height="1145"
     inkscape:window-x="990"
     inkscape:window-y="27"
     inkscape:window-maximized="0" />
  <metadata
     id="metadata2241">
    <rdf:RDF>
      <cc:Work
         rdf:about="">
        <dc:format>image/svg+xml</dc:format>
        <dc:type
           rdf:resource="http://purl.org/dc/dcmitype/StillImage" />
        <dc:title></dc:title>
      </cc:Work>
    </rdf:RDF>
  </metadata>
  <g
     inkscape:label="Layer 1"
     inkscape:groupmode="layer"
     id="layer1"
     transform="translate(-34.39159,-71.424521)">
    <path
       inkscape:connector-curvature="0"
       style="opacity:1;fill:#fdd629;fill-opacity:1;fill-rule:evenodd;stroke:#044e54;stroke-width:0;stroke-miterlimit:4;stroke-dasharray:none;stroke-opacity:1"
       d="m 74.391731,71.424522 a 39.999999,39.999999 0 0 0 -40.00014,39.999618 39.999999,39.999999 0 0 0 40.00014,40.00014 39.999999,39.999999 0 0 0 39.999619,-40.00014 39.999999,39.999999 0 0 0 -39.999619,-39.999618 z m 0,6.99957 A 33,33 0 0 1 107.39178,111.42414 33,33 0 0 1 74.391731,144.42419 33,33 0 0 1 41.39168,111.42414 33,33 0 0 1 74.391731,78.424092 Z"
       id="path1471-6" />
    <path
       style="fill:none;stroke:#fdd629;stroke-width:8;stroke-linecap:butt;stroke-linejoin:miter;stroke-miterlimit:4;stroke-dasharray:none;stroke-opacity:1"
       d="m 87.969711,124.98962 -13.60714,-13.57171 0.11945,-24.338718"
       id="path2134-2"
       inkscape:connector-curvature="0" />
  </g>
</svg>
