<?xml version="1.0" encoding="UTF-8" standalone="no"?>
<!-- Created with Inkscape (http://www.inkscape.org/) -->

<svg
   xmlns:dc="http://purl.org/dc/elements/1.1/"
   xmlns:cc="http://creativecommons.org/ns#"
   xmlns:rdf="http://www.w3.org/1999/02/22-rdf-syntax-ns#"
   xmlns:svg="http://www.w3.org/2000/svg"
   xmlns="http://www.w3.org/2000/svg"
   xmlns:sodipodi="http://sodipodi.sourceforge.net/DTD/sodipodi-0.dtd"
   xmlns:inkscape="http://www.inkscape.org/namespaces/inkscape"
   width="79.999771mm"
   height="79.999763mm"
   viewBox="0 0 79.999771 79.999763"
   version="1.1"
   id="svg2244"
   sodipodi:docname="favicon_running.svg"
   inkscape:version="0.92.3 (2405546, 2018-03-11)">
  <defs
     id="defs2238" />
  <sodipodi:namedview
     id="base"
     pagecolor="#ffffff"
     bordercolor="#666666"
     borderopacity="1.0"
     inkscape:pageopacity="0.0"
     inkscape:pageshadow="2"
     inkscape:zoom="0.24748737"
     inkscape:cx="655.15022"
     inkscape:cy="-162.53143"
     inkscape:document-units="mm"
     inkscape:current-layer="layer1"
     showgrid="false"
     inkscape:window-width="930"
     inkscape:window-height="1145"
     inkscape:window-x="990"
     inkscape:window-y="27"
     inkscape:window-maximized="0" />
  <metadata
     id="metadata2241">
    <rdf:RDF>
      <cc:Work
         rdf:about="">
        <dc:format>image/svg+xml</dc:format>
        <dc:type
           rdf:resource="http://purl.org/dc/dcmitype/StillImage" />
        <dc:title></dc:title>
      </cc:Work>
    </rdf:RDF>
  </metadata>
  <g
     inkscape:label="Layer 1"
     inkscape:groupmode="layer"
     id="layer1"
     transform="translate(-99.60535,-44.697568)">
    <path
       inkscape:connector-curvature="0"
       style="opacity:1;fill:#00b0ff;fill-opacity:1;fill-rule:evenodd;stroke:none;stroke-width:0;stroke-miterlimit:4;stroke-dasharray:none;stroke-opacity:1"
       d="m 139.60549,58.697239 a 26,26 0 0 0 -0.0574,0.002 l 0.0475,25.99118 -18.36839,18.376131 a 26,26 0 0 0 18.37821,7.63057 26,26 0 0 0 25.99996,-25.99997 26,26 0 0 0 -25.99996,-25.999961 z"
       id="path2154-9" />
    <path
       inkscape:connector-curvature="0"
       style="opacity:1;fill:#00b0ff;fill-opacity:1;fill-rule:evenodd;stroke:#044e54;stroke-width:0;stroke-miterlimit:4;stroke-dasharray:none;stroke-opacity:1"
       d="M 139.60549,44.697569 A 39.999999,39.999999 0 0 0 99.605351,84.6972 39.999999,39.999999 0 0 0 139.60549,124.69733 39.999999,39.999999 0 0 0 179.60512,84.6972 39.999999,39.999999 0 0 0 139.60549,44.697569 Z m 0,6.99958 A 33,33 0 0 1 172.60554,84.6972 33,33 0 0 1 139.60549,117.69725 33,33 0 0 1 106.60544,84.6972 33,33 0 0 1 139.60549,51.697149 Z"
       id="path1471-1" />
  </g>
</svg>
